<svg width="130" height="22" viewBox="0 0 130 22" fill="none" xmlns="http://www.w3.org/2000/svg">
<path fill-rule="evenodd" clip-rule="evenodd" d="M24.4768 20.9083V2.24611H37.1374V6.55056H29.2854V10.3957H35.1592L31.9367 14.5138H29.2854V20.9091H24.4776L24.4768 20.9083ZM64.0113 1.96156C69.2019 1.96156 73.4254 6.28478 73.4254 11.5996C73.4254 16.9137 69.2019 21.2377 64.0106 21.2377C58.8207 21.2377 54.5971 16.9137 54.5971 11.5996C54.5971 6.28478 58.8214 1.96156 64.0113 1.96156ZM64.0113 16.4139C66.5224 16.4139 68.5649 14.2538 68.5649 11.5996C68.5649 8.94472 66.5224 6.78456 64.0106 6.78456C61.5001 6.78456 59.4569 8.94472 59.4569 11.5996C59.4569 14.2538 61.5008 16.4139 64.0113 16.4139ZM83.1458 20.9083L91.6283 2.07133L100.117 20.9083H95.1874L89.0659 18.7084L88.0764 20.9083H83.1458ZM93.0865 16.1554L91.6319 12.7256L90.5811 15.2042L91.6319 15.6036L93.0865 16.1554ZM78.2889 14.5304V2.24611H83.0989V14.69C83.0989 16.8545 82.5356 18.4311 81.3786 19.5534C80.3039 20.6483 78.7193 21.2362 76.8112 21.2362C74.5579 21.2622 73.0087 20.5696 71.591 19.5607L74.2704 16.1373C74.3029 16.1604 75.2823 16.8884 76.4082 16.8812C77.5371 16.8733 78.2889 16.1056 78.2889 14.5289V14.5304ZM53.326 8.52511C53.326 11.2515 52.2788 13.6413 50.0363 14.5152L55.0225 20.9083H49.9438L44.9446 14.5152L47.7634 10.9092C48.074 10.5098 48.4958 9.71245 48.4886 8.658C48.4257 7.16445 47.4247 6.41695 45.8734 6.41695H43.4157V20.9083H38.6346V2.24611H46.0879C48.5983 2.24611 50.4934 2.91056 51.6967 4.13256C52.7381 5.16895 53.326 6.63867 53.326 8.52511ZM20.1904 17.6294C21.2398 18.0686 22.789 18.3972 23.7438 18.2961L23.9229 18.2758C23.9229 18.2758 23.9027 18.4239 23.7893 18.5662C23.7664 18.6069 23.7393 18.6452 23.7084 18.6803L23.7069 18.6817C23.7069 18.6832 23.7055 18.6839 23.7048 18.6853L23.6687 18.7279C23.5098 18.993 23.5134 19.136 23.3169 19.3144C23.2888 19.3397 23.2433 19.3902 23.2433 19.4206C23.2433 19.5282 23.1732 19.5621 23.0959 19.5982C23.0533 19.6177 23.0129 19.6416 22.9724 19.6654C22.8619 19.7391 22.9775 19.9146 22.8706 19.9832C22.8533 19.9947 22.828 19.9954 22.8114 20.007C22.7681 20.0359 22.7276 20.0698 22.6857 20.1009C22.5991 20.1644 22.5146 20.2316 22.4243 20.2901C22.3448 20.3407 22.2582 20.3782 22.178 20.4266C22.1513 20.4425 22.1368 20.4772 22.1152 20.5017C22.0704 20.5552 22.0357 20.6317 21.9779 20.6556C21.9361 20.6751 21.8841 20.7162 21.8841 20.7162C21.814 20.7689 21.7699 20.852 21.6277 20.8599C21.5042 20.8599 21.4601 20.8845 21.4601 20.8845C21.4601 20.8845 21.3893 20.9156 21.3532 20.9329C21.253 20.9821 21.1445 21.0125 21.0333 21.0224C20.8989 21.0333 20.7502 21.0484 20.6375 21.112C20.5491 21.1603 20.4507 21.1878 20.3501 21.1922L20.3486 21.1929C20.202 21.216 20.1103 21.2153 20.1081 21.2153C20.0663 21.2194 20.0244 21.2216 19.9824 21.2218C19.8907 21.2377 19.8012 21.2507 19.7131 21.2615C19.6326 21.308 19.5464 21.3437 19.4567 21.3677C19.438 21.3757 19.4186 21.3823 19.3989 21.3872C19.2762 21.4128 19.1502 21.4194 19.0255 21.4067C18.9602 21.4025 18.8952 21.3955 18.8305 21.3857C18.7467 21.3814 18.6629 21.3532 18.5792 21.3301L18.5604 21.3229C18.4929 21.2966 18.4197 21.2884 18.3481 21.2991C18.3054 21.3019 18.2636 21.3063 18.2209 21.2998C17.9656 21.2307 17.7114 21.1578 17.4583 21.0809C16.7028 20.8325 15.3566 20.3009 15.3566 20.3009C12.8375 19.2451 10.7185 18.4347 8.94039 17.8143L7.51111 20.9083H2.16811L4.27267 16.3894C1.74922 15.6578 0 15.9004 0 15.9004L0.0664444 15.7957L0.0931667 15.7502L0.0946111 15.7343C0.0975 15.7069 0.0801667 15.6982 0.105444 15.6773C0.122778 15.6628 0.150222 15.6238 0.165389 15.6051C0.153974 15.6001 0.141714 15.5974 0.129278 15.5971C0.0671667 15.5957 0.0498333 15.5632 0.0577778 15.4938C0.0606667 15.4671 0.0462222 15.4346 0.0707778 15.4129C0.0996667 15.3884 0.132889 15.3682 0.164667 15.3479C0.182 15.3386 0.200778 15.3335 0.218111 15.3256C0.230389 15.3205 0.247 15.3162 0.251333 15.3068C0.25461 15.2999 0.259002 15.2935 0.264333 15.288L0.268667 15.2829C0.273295 15.2795 0.278118 15.2764 0.283111 15.2736C0.298391 15.2676 0.31408 15.2628 0.330056 15.2591C0.334389 15.2577 0.338722 15.2504 0.351722 15.2396C0.338722 15.2338 0.319944 15.223 0.304778 15.2143C0.280944 15.2013 0.284556 15.1869 0.284556 15.1869C0.291056 15.158 0.267944 15.1522 0.280222 15.1291C0.311278 15.1125 0.343778 15.1074 0.374111 15.0887C0.386389 15.0807 0.406611 15.0627 0.403 15.0489C0.400111 15.0359 0.395056 15.0287 0.374111 15.0143L0.317778 14.9666C0.309679 14.9596 0.30219 14.9518 0.295389 14.9435L0.293944 14.9421C0.289653 14.9375 0.286442 14.9321 0.284556 14.9262L0.317778 14.9117C0.384222 14.8828 0.520722 14.8121 0.615333 14.5896L0.791556 14.5102C0.806722 14.5015 0.844278 14.4885 0.863056 14.4639C0.772056 14.4379 0.728722 14.417 0.715 14.4127C0.8385 14.2827 1.00028 14.2697 1.131 14.1635C1.14183 14.1563 1.15194 14.1476 1.16133 14.1404L1.21333 14.0508L1.287 14.0451C1.32311 14.0256 1.35706 14.0089 1.39172 13.9916C1.46033 13.9577 1.48272 13.8594 1.57517 13.8479C1.6205 13.8455 1.66438 13.831 1.70228 13.806C1.742 13.7771 1.72972 13.6933 1.72972 13.6933C1.72972 13.6933 1.7485 13.663 1.88933 13.6031C2.02078 13.5503 2.14861 13.4947 2.275 13.3611C2.49456 13.3033 2.61733 13.2463 2.80656 13.2181C2.81089 13.2152 2.84989 13.1632 2.86433 13.1567C3.03622 13.0888 4.20767 12.6671 5.94606 12.8043L11.9528 0L20.1912 17.6294H20.1904ZM10.7004 14.0472L13.7201 15.1652L12.0243 11.2147L10.7004 14.0472ZM122.736 11.6263L130 20.9083H124.11L119.127 14.5152V20.9083H114.32V2.24611H119.127V8.39222L123.532 2.24611H129.455L122.724 11.6162L122.736 11.6263ZM108.265 6.71522C105.717 6.71522 103.646 8.90645 103.646 11.5996C103.646 14.2921 105.717 16.484 108.265 16.484C108.842 16.4838 109.413 16.3694 109.946 16.1474L112.927 19.9673C111.514 20.7993 109.904 21.2379 108.265 21.2377C103.074 21.2377 98.8513 16.9137 98.8513 11.5996C98.8513 6.28478 103.074 1.96156 108.265 1.96156C109.963 1.96156 111.557 2.42594 112.934 3.23556L109.953 7.05467C109.419 6.83057 108.845 6.71518 108.265 6.71522Z" fill="white"/>
</svg>
